<svg width="33" height="28" viewBox="0 0 33 28" fill="none" xmlns="http://www.w3.org/2000/svg">
<path d="M31.4787 0.222604C31.7298 -0.0742014 32.1369 -0.0742014 32.3879 0.222604C32.639 0.51941 32.639 1.00063 32.3879 1.29743L10.5602 27.1002C10.55 27.1141 10.5393 27.1277 10.5281 27.141C10.4031 27.2887 10.2395 27.3629 10.0757 27.3636C9.90963 27.365 9.74316 27.2908 9.61644 27.141C9.60516 27.1277 9.59439 27.114 9.58413 27.0999L0.615313 16.4978C0.364232 16.201 0.364231 15.7198 0.615313 15.423C0.866395 15.1262 1.27348 15.1262 1.52456 15.423L10.0723 25.5273L31.4787 0.222604Z" fill="black"/>
</svg>
