<svg width="149" height="19" viewBox="0 0 149 19" fill="none" xmlns="http://www.w3.org/2000/svg">
<path d="M97.0622 0.23584V8.27893L91.8623 0.23584H85.2847V7.93139L80.0723 0.23584H73.8547L85.0489 18.4321H90.4599V7.93139L96.6031 18.4321H102.237V0.23584H97.0622Z" fill="#1E1E1E"/>
<path d="M78.943 18.4321V8.51476L73.8547 0.23584V18.4321H78.943Z" fill="#1E1E1E"/>
<path d="M17.2754 9.08572L14.905 0.23584H10.1642L8.20332 8.78782L5.67158 0.23584H0L4.70356 18.2955H9.91596L12.4105 9.8801L15.0167 18.2955H20.2415L25.0567 0.23584H19.41L17.2754 9.08572Z" fill="#1E1E1E"/>
<path d="M26.1364 18.4321H31.324L31.3488 7.62109H26.1736L26.1364 18.4321Z" fill="#1E1E1E"/>
<path d="M46.7254 11.4688C46.1545 12.7225 45.0127 14.2119 42.8533 14.2119C40.0361 14.2119 38.5097 11.7171 38.5097 9.37119C38.5097 7.07494 40.0237 4.62974 42.8285 4.62974C44.901 4.62974 46.2041 6.08196 46.713 7.4473L46.7998 7.68314H52.1488L52.0743 7.26112C51.5531 4.24496 48.3512 0 42.8409 0C36.8839 0 33.3221 4.77869 33.3221 9.39601C33.3221 14.0382 36.8963 18.8417 42.8906 18.8417C47.3335 18.8417 51.0194 15.9745 52.0619 11.6923L52.1736 11.2454H46.8123L46.7254 11.4688Z" fill="#1E1E1E"/>
<path d="M130.806 11.4688C130.235 12.7225 129.094 14.2119 126.934 14.2119C124.117 14.2119 122.591 11.7171 122.591 9.37119C122.591 7.07494 124.105 4.62974 126.909 4.62974C128.982 4.62974 130.285 6.08196 130.794 7.4473L130.881 7.68314H136.23L136.155 7.26112C135.634 4.24496 132.432 0 126.922 0C120.965 0 117.403 4.77869 117.403 9.39601C117.403 14.0382 120.977 18.8417 126.971 18.8417C131.414 18.8417 135.1 15.9745 136.143 11.6923L136.254 11.2454H130.893L130.806 11.4688Z" fill="#1E1E1E"/>
<path d="M62.921 0C58.1182 0 55.1521 3.11545 54.0724 5.77166C53.6008 6.92599 53.365 8.22927 53.365 9.63185C53.365 14.063 57.0137 18.8417 62.9086 18.8417C68.2948 18.8417 72.5267 14.696 72.5267 9.42084C72.5267 4.14567 68.2948 0 62.921 0ZM62.9955 14.2119C60.1039 14.2119 58.5402 11.7171 58.5402 9.37119C58.5402 7.07494 60.0915 4.62974 62.9459 4.62974C65.974 4.62974 67.3268 7.44731 67.3268 9.44567C67.3392 11.4316 65.9864 14.2119 62.9955 14.2119Z" fill="#1E1E1E"/>
<path d="M104.335 18.4197H116.187V13.7899H109.324V11.5061H116.025V6.86393H109.324V4.87799H116.187V0.23584H104.335V18.4197Z" fill="#1E1E1E"/>
<path d="M136.949 0.23584V4.87799H140.4V18.4197H145.587V4.87799H149V0.23584H136.949Z" fill="#1E1E1E"/>
<path d="M73.8547 0.23584L78.943 8.5644V16.2848L73.8547 9.9918V0.23584Z" fill="url(#paint0_linear_11_1255)"/>
<path d="M28.7426 5.93296C30.3533 5.93296 31.6591 4.62704 31.6591 3.0161C31.6591 1.40517 30.3533 0.0992432 28.7426 0.0992432C27.1319 0.0992432 25.8262 1.40517 25.8262 3.0161C25.8262 4.62704 27.1319 5.93296 28.7426 5.93296Z" fill="#1E1E1E"/>
<defs>

</defs>
</svg>
